<?xml version="1.0" encoding="UTF-8"?>
<svg width="57px" height="57px" viewBox="0 0 57 57" version="1.1" xmlns="http://www.w3.org/2000/svg" xmlns:xlink="http://www.w3.org/1999/xlink">
    <title>Group 3</title>
    <g id="Page-1" stroke="none" stroke-width="1" fill="none" fill-rule="evenodd">
        <g id="Desktop-HD" transform="translate(-251.000000, -1213.000000)" fill-rule="nonzero">
            <g id="Group-3" transform="translate(251.000000, 1213.000000)">
                <path d="M56.3601547,41.4523058 C57.2132818,42.3054329 57.2132818,43.6944988 56.3601547,44.5476258 L44.5476258,56.3601547 C43.6944988,57.2132818 42.3054329,57.2132818 41.4523058,56.3601547 L29.6408707,44.5476258 C28.7863764,43.6944988 28.7863764,42.3054329 29.6408707,41.4523058 L41.4523058,29.6408707 C42.3054329,28.7863764 43.6944988,28.7863764 44.5476258,29.6408707 L56.3601547,41.4523058 Z" id="Diamond" fill="#2D669E"></path>
                <path d="M21.75,9.0625 C25.7544922,9.0625 29,12.3080078 29,16.3125 C29,20.3169922 25.7544922,23.5625 21.75,23.5625 C19.5863281,23.5625 17.6435547,22.6109375 16.3125,21.1099609 L16.3125,25.375 L18.125,25.375 C19.1275391,25.375 19.9375,26.1849609 19.9375,27.1875 C19.9375,28.1900391 19.1275391,29 18.125,29 L10.875,29 C9.87246094,29 9.0625,28.1900391 9.0625,27.1875 C9.0625,26.1849609 9.87246094,25.375 10.875,25.375 L12.6875,25.375 L12.6875,21.1099609 C11.3564453,22.6109375 9.41367187,23.5625 7.25,23.5625 C3.24607422,23.5625 0,20.3169922 0,16.3125 C0,12.3080078 3.24607422,9.0625 7.25,9.0625 C7.32929688,9.0625 7.40292969,9.0625 7.4765625,9.06816406 C7.32929688,8.48476563 7.25,7.87871094 7.25,7.25 C7.25,3.24607422 10.4955078,0 14.5,0 C18.5044922,0 21.75,3.24607422 21.75,7.25 C21.75,7.87871094 21.6707031,8.48476563 21.4724609,9.06816406 C21.5970703,9.0625 21.6707031,9.0625 21.75,9.0625 Z" id="Club" fill="#639E2D"></path>
            </g>
        </g>
    </g>
</svg>
