<?xml version="1.0" encoding="UTF-8"?>
<svg width="57px" height="53px" viewBox="0 0 57 53" version="1.1" xmlns="http://www.w3.org/2000/svg" xmlns:xlink="http://www.w3.org/1999/xlink">
    <title>Group 2</title>
    <g id="Page-1" stroke="none" stroke-width="1" fill="none" fill-rule="evenodd">
        <g id="Desktop-HD" transform="translate(-251.000000, -135.000000)" fill-rule="nonzero">
            <g id="Group-2" transform="translate(251.000000, 135.000000)">
                <path d="M29,37.1533929 L29,36.8354741 C29,33.0040046 31.7628125,29.7360188 35.5296875,29.1067588 C37.9742187,28.6907237 40.5609375,29.5052536 42.34375,31.2949171 L43,31.9515838 L43.6070313,31.2949171 C45.4390625,29.5052536 47.9765625,28.6907237 50.4703125,29.1067588 C54.2382812,29.7360188 57,33.0040046 57,36.8354741 L57,37.1533929 C57,39.4281566 56.059375,41.6042559 54.396875,43.1554803 L44.5148437,52.4025319 C44.1046875,52.786227 43.5632813,53 43,53 C42.4367187,53 41.8953125,52.786227 41.4851563,52.4025319 L31.6025781,43.1554803 C29.9422656,41.6042559 29,39.4281566 29,37.1533929 L29,37.1533929 Z" id="Heart" fill="#9E2D2D"></path>
                <path d="M26.7345915,10.986102 C29.6459377,13.7592266 29.7648837,18.3354528 27.0121323,21.3139941 C24.2593809,24.2411812 19.6714618,24.3667136 16.7148029,21.593589 L16.312652,21.1599316 L16.312652,25.3481486 L18.1251632,25.3481486 C19.1277085,25.3481486 19.9376744,26.1641092 19.9376744,27.1740743 C19.9376744,28.1840395 19.1277085,29 18.1251632,29 L10.8751183,29 C9.87257304,29 9.06260709,28.1840395 9.06260709,27.1740743 C9.06260709,26.1641092 9.87257304,25.3481486 10.8751183,25.3481486 L12.6876295,25.3481486 L12.6876295,21.1599316 L12.2345017,21.593589 C9.32881967,24.3667136 4.74033423,24.2411812 1.98645,21.3139941 C-0.766867832,18.3354528 -0.642824095,13.7592266 2.26399078,10.986102 L13.2030624,0.50015314 C13.9507233,-0.166726272 15.0495582,-0.166709154 15.7462422,0.50015314 L26.7345915,10.986102 Z" id="Spade" fill="#6E2D9E" transform="translate(14.500000, 14.500000) rotate(-360.000000) translate(-14.500000, -14.500000) "></path>
            </g>
        </g>
    </g>
</svg>
